HIERARCHY
ROOT Hips
{
	OFFSET 0.00 0.00 0.00
	CHANNELS 6 Xposition Yposition Zposition Xrotation Yrotation Zrotation
	JOINT Spine
	{
		OFFSET 0.00000 1.70439 2.55658
		CHANNELS 3 Xrotation Yrotation Zrotation
		JOINT Spine1
		{
			OFFSET 0.00000 0.59193 3.35699
			CHANNELS 3 Xrotation Yrotation Zrotation
			JOINT Spine2
			{
				OFFSET 0.00000 0.29710 3.39581
				CHANNELS 3 Xrotation Yrotation Zrotation
				JOINT Spine3
				{
					OFFSET 0.00000 0.00000 3.40878
					CHANNELS 3 Xrotation Yrotation Zrotation
					JOINT Neck
					{
						OFFSET 0.00000 -1.27828 8.94804
						CHANNELS 3 Xrotation Yrotation Zrotation
						JOINT Head
						{
							OFFSET 0.00000 -0.81390 4.61586
							CHANNELS 3 Xrotation Yrotation Zrotation
							End Site
							{
								OFFSET 0.00000 0.00001 5.51796
							}
						}
					}
					JOINT RightShoulder
					{
						OFFSET -1.18875 -1.98124 6.41925
						CHANNELS 3 Xrotation Yrotation Zrotation
						JOINT RightArm
						{
							OFFSET -5.90412 0.00000 0.00000
							CHANNELS 3 Xrotation Yrotation Zrotation
							JOINT RightForeArm
							{
								OFFSET -11.94674 0.00000 0.00000
								CHANNELS 3 Xrotation Yrotation Zrotation
								JOINT RightHand
								{
									OFFSET -10.17720 0.00000 0.00000
									CHANNELS 3 Xrotation Yrotation Zrotation
									JOINT RightHandEnd
									{
										OFFSET -2.84518 0.00000 0.00000
										CHANNELS 3 Xrotation Yrotation Zrotation
										End Site
										{
											OFFSET -2.84518 0.00000 0.00000
										}
									}
									JOINT RightHandThumb1
									{
										OFFSET -1.13807 -1.89679 -0.75871
										CHANNELS 3 Yrotation Xrotation Zrotation
										End Site
										{
											OFFSET -2.74823 -0.73639 0.00000
										}
									}
								}
							}
						}
					}
					JOINT LeftShoulder
					{
						OFFSET 1.18875 -1.98124 6.41925
						CHANNELS 3 Xrotation Yrotation Zrotation
						JOINT LeftArm
						{
							OFFSET 5.90412 0.00000 0.00000
							CHANNELS 3 Xrotation Yrotation Zrotation
							JOINT LeftForeArm
							{
								OFFSET 11.94674 0.00000 0.00000
								CHANNELS 3 Xrotation Yrotation Zrotation
								JOINT LeftHand
								{
									OFFSET 10.17720 0.00000 0.00000
									CHANNELS 3 Xrotation Yrotation Zrotation
									JOINT LeftHandEnd
									{
										OFFSET 2.84518 0.00000 0.00000
										CHANNELS 3 Xrotation Yrotation Zrotation
										End Site
										{
											OFFSET 2.84518 0.00000 0.00000
										}
									}
									JOINT LeftHandThumb1
									{
										OFFSET 1.13807 -1.89679 -0.75871
										CHANNELS 3 Yrotation Xrotation Zrotation
										End Site
										{
											OFFSET 2.74823 -0.73639 0.00000
										}
									}
								}
							}
						}
					}
				}
			}
		}
	}
	JOINT RightUpLeg
	{
		OFFSET -3.52662 0.00000 -1.03025
		CHANNELS 3 Xrotation Yrotation Zrotation
		JOINT RightLeg
		{
			OFFSET 0.00001 0.00000 -17.80159
			CHANNELS 3 Xrotation Yrotation Zrotation
			JOINT RightFoot
			{
				OFFSET 0.00001 0.00000 -16.85992
				CHANNELS 3 Xrotation Yrotation Zrotation
				JOINT RightToeBase
				{
					OFFSET 0.00000 -5.42953 -1.97619
					CHANNELS 3 Xrotation Yrotation Zrotation
					End Site
					{
						OFFSET 0.00000 -2.85300 -0.00000
					}
				}
			}
		}
	}
	JOINT LeftUpLeg
	{
		OFFSET 3.52662 0.00000 -1.03025
		CHANNELS 3 Xrotation Yrotation Zrotation
		JOINT LeftLeg
		{
			OFFSET 0.00001 0.00000 -17.80159
			CHANNELS 3 Xrotation Yrotation Zrotation
			JOINT LeftFoot
			{
				OFFSET 0.00001 0.00000 -16.85992
				CHANNELS 3 Xrotation Yrotation Zrotation
				JOINT LeftToeBase
				{
					OFFSET 0.00000 -5.42953 -1.97619
					CHANNELS 3 Xrotation Yrotation Zrotation
					End Site
					{
						OFFSET 0.00000 -2.85300 -0.00000
					}
				}
			}
		}
	}
}
MOTION
Frames: 6
Frame Time: 0.008342
 0.9758 -86.8363 37.6125 1.1977 0.3793 -175.0179 2.1774 -1.3325 -0.4824 1.3464 -0.3357 -0.1399 -1.2681 -1.1201 -0.3745 -1.1941 0.5937 0.0954 1.1586 -0.9050 -2.6225 -2.0651 1.3073 -1.8195 -2.5134 14.0220 -0.7511 -4.8224 3.8519 -3.8705 0.0000 0.0000 9.4513 -2.0303 21.0707 -9.6186 -0.0000 0.0000 -0.0000 0.0000 -0.0000 0.0000 -4.3578 -11.0504 -3.5150 7.2825 3.6538 4.1563 -0.0000 -0.0000 -11.4673 -3.3179 -17.9801 2.5594 0.0000 -0.0000 -0.0000 0.0000 0.0000 0.0000 2.8553 6.2957 -37.5319 11.3863 0.0000 0.0000 -11.1331 -7.4416 -0.1132 3.1870 0.0000 0.0000 1.0392 -4.8909 7.8383 11.7430 0.0000 0.0000 -9.8231 13.4495 5.6555 -2.7326 0.0000 -0.0000
 0.9750 -86.8374 37.6114 1.2505 0.3829 -174.9768 2.1807 -1.3182 -0.4809 1.3456 -0.3465 -0.1409 -1.2674 -1.0948 -0.3722 -1.1934 0.6015 0.0898 1.1567 -0.8900 -2.6389 -2.0344 1.2905 -1.8544 -2.5435 14.0902 -0.7206 -4.7951 3.7795 -3.9235 0.0000 0.0000 9.4080 -1.9852 20.9404 -9.6777 0.0000 0.0000 0.0000 -0.0000 0.0000 0.0000 -4.3942 -11.0848 -3.5351 7.2166 3.6767 4.1344 -0.0000 -0.0000 -11.4620 -3.3288 -17.9340 2.5741 0.0000 0.0000 0.0000 -0.0000 -0.0000 -0.0000 2.9096 6.2968 -37.5568 11.4015 0.0000 0.0000 -11.1477 -7.4406 -0.1303 3.1886 0.0000 0.0000 1.0581 -4.8891 7.7480 11.7945 0.0000 0.0000 -9.8507 13.4230 5.6963 -2.7400 0.0000 -0.0000
 0.9742 -86.8385 37.6100 1.3241 0.3869 -174.9276 2.1893 -1.3050 -0.4787 1.3452 -0.3501 -0.1406 -1.2654 -1.0685 -0.3686 -1.1919 0.6108 0.0832 1.1524 -0.8696 -2.6573 -1.9960 1.2715 -1.8963 -2.5748 14.1705 -0.6853 -4.7568 3.6958 -3.9889 0.0000 0.0000 9.3548 -1.9291 20.7649 -9.7552 0.0000 0.0000 0.0000 -0.0000 0.0000 0.0000 -4.4375 -11.1254 -3.5617 7.1362 3.7046 4.1080 -0.0000 -0.0000 -11.4536 -3.3406 -17.8782 2.5929 0.0000 -0.0000 -0.0000 -0.0000 -0.0000 0.0000 2.9872 6.2952 -37.5872 11.4151 0.0000 0.0000 -11.1643 -7.4396 -0.1500 3.1916 0.0000 0.0000 1.0925 -4.8877 7.6339 11.8542 0.0000 0.0000 -9.8860 13.3909 5.7506 -2.7492 0.0000 -0.0000
 0.9735 -86.8398 37.6083 1.4156 0.3930 -174.8726 2.2011 -1.2881 -0.4755 1.3451 -0.3524 -0.1400 -1.2608 -1.0390 -0.3621 -1.1895 0.6213 0.0766 1.1454 -0.8436 -2.6771 -1.9506 1.2519 -1.9437 -2.6073 14.2585 -0.6470 -4.7065 3.6061 -4.0641 0.0000 0.0000 9.2939 -1.8628 20.5493 -9.8484 -0.0000 0.0000 -0.0000 -0.0000 0.0000 0.0000 -4.4872 -11.1693 -3.5948 7.0441 3.7360 4.0790 -0.0000 -0.0000 -11.4420 -3.3595 -17.8149 2.6129 0.0000 -0.0000 -0.0000 0.0000 0.0000 0.0000 3.0850 6.2932 -37.6215 11.4276 0.0000 0.0000 -11.1835 -7.4384 -0.1713 3.1959 0.0000 0.0000 1.1419 -4.8842 7.4977 11.9180 0.0000 0.0000 -9.9273 13.3534 5.8195 -2.7594 0.0000 -0.0000
 0.9729 -86.8411 37.6064 1.5238 0.3999 -174.8140 2.2166 -1.2687 -0.4729 1.3447 -0.3540 -0.1381 -1.2530 -1.0066 -0.3526 -1.1866 0.6327 0.0700 1.1363 -0.8131 -2.6975 -1.9010 1.2323 -1.9926 -2.6391 14.3500 -0.6075 -4.6456 3.5136 -4.1453 0.0000 0.0000 9.2287 -1.7885 20.3058 -9.9511 0.0000 0.0000 0.0000 0.0000 -0.0000 -0.0000 -4.5398 -11.2147 -3.6312 6.9415 3.7696 4.0473 -0.0000 -0.0000 -11.4267 -3.3813 -17.7470 2.6346 0.0000 0.0000 0.0000 0.0000 -0.0000 0.0000 3.2022 6.2886 -37.6587 11.4361 0.0000 0.0000 -11.2036 -7.4366 -0.1933 3.2008 0.0000 0.0000 1.2065 -4.8804 7.3437 11.9843 0.0000 0.0000 -9.9744 13.3118 5.9010 -2.7698 0.0000 -0.0000
 0.9726 -86.8422 37.6043 1.6485 0.4068 -174.7540 2.2381 -1.2434 -0.4704 1.3446 -0.3638 -0.1379 -1.2432 -0.9659 -0.3374 -1.1827 0.6424 0.0627 1.1243 -0.7790 -2.7165 -1.8472 1.2141 -2.0416 -2.6687 14.4403 -0.5696 -4.5752 3.4227 -4.2270 0.0000 0.0000 9.1626 -1.7110 20.0473 -10.0540 0.0000 -0.0000 0.0000 -0.0000 -0.0000 0.0000 -4.5943 -11.2601 -3.6691 6.8332 3.8054 4.0137 -0.0000 -0.0000 -11.4076 -3.4082 -17.6780 2.6568 0.0000 -0.0000 -0.0000 -0.0000 0.0000 0.0000 3.3397 6.2796 -37.6972 11.4378 0.0000 0.0000 -11.2228 -7.4344 -0.2151 3.2070 0.0000 0.0000 1.2889 -4.8774 7.1785 12.0487 0.0000 0.0000 -10.0252 13.2675 5.9919 -2.7800 0.0000 -0.0000
